<svg width="76" height="76" viewBox="0 0 76 76" fill="none" xmlns="http://www.w3.org/2000/svg">
<path d="M13.5 42C13.5 40.6193 14.6193 39.5 16 39.5H60C61.3807 39.5 62.5 40.6193 62.5 42V60C62.5 61.3807 61.3807 62.5 60 62.5H16C14.6193 62.5 13.5 61.3807 13.5 60V42Z" fill="#0B0B3C" stroke="white" stroke-width="3"/>
<rect x="57" y="52" width="3" height="8" rx="1.5" fill="white"/>
<rect x="54" y="60" width="3" height="6" rx="1.5" transform="rotate(-90 54 60)" fill="white"/>
<rect x="30" y="60" width="3" height="20" rx="1.5" transform="rotate(-90 30 60)" fill="white"/>
<path d="M3.5 33C3.5 27.201 8.20101 22.5 14 22.5C19.799 22.5 24.5 27.201 24.5 33V60C24.5 61.3807 23.3807 62.5 22 62.5H6C4.61929 62.5 3.5 61.3807 3.5 60V33Z" fill="#0B0B3C" stroke="white" stroke-width="3"/>
<rect x="15.5" y="39" width="3" height="10" rx="1.5" transform="rotate(180 15.5 39)" fill="white"/>
</svg>
