<svg width="76" height="76" viewBox="0 0 76 76" fill="none" xmlns="http://www.w3.org/2000/svg">
<path d="M3.5 16C3.5 14.6193 4.61929 13.5 6 13.5H50C51.3807 13.5 52.5 14.6193 52.5 16V60C52.5 61.3807 51.3807 62.5 50 62.5H6C4.61929 62.5 3.5 61.3807 3.5 60V16Z" fill="#0B0B3C" stroke="white" stroke-width="3"/>
<path d="M10 18.5C10 19.3284 9.32843 20 8.5 20C7.67157 20 7 19.3284 7 18.5C7 17.6716 7.67157 17 8.5 17C9.32843 17 10 17.6716 10 18.5Z" fill="white"/>
<rect x="19" y="20" width="3" height="17" rx="1.5" transform="rotate(-90 19 20)" fill="white"/>
<path d="M43.5 25C43.5 23.6193 44.6193 22.5 46 22.5H61C62.3807 22.5 63.5 23.6193 63.5 25V60C63.5 61.3807 62.3807 62.5 61 62.5H46C44.6193 62.5 43.5 61.3807 43.5 60V25Z" fill="#0B0B3C" stroke="white" stroke-width="3"/>
<circle cx="53.5" cy="55.5" r="2.5" fill="#F2F2F2"/>
</svg>
