<svg width="76" height="76" viewBox="0 0 76 76" fill="none" xmlns="http://www.w3.org/2000/svg">
<path d="M16.5 16C16.5 14.6193 17.6193 13.5 19 13.5H61C62.3807 13.5 63.5 14.6193 63.5 16V60C63.5 61.3807 62.3807 62.5 61 62.5H19C17.6193 62.5 16.5 61.3807 16.5 60V16Z" fill="#0B0B3C" stroke="white" stroke-width="3"/>
<circle cx="59.5" cy="35.5" r="1.5" fill="#F2F2F2"/>
<circle cx="59.5" cy="40.5" r="1.5" fill="#F2F2F2"/>
<path d="M3.5 16C3.5 14.6193 4.61929 13.5 6 13.5H23C24.3807 13.5 25.5 14.6193 25.5 16V60C25.5 61.3807 24.3807 62.5 23 62.5H6C4.61929 62.5 3.5 61.3807 3.5 60V16Z" fill="#0B0B3C" stroke="white" stroke-width="3"/>
<rect x="9" y="43" width="3" height="10" rx="1.5" transform="rotate(180 9 43)" fill="white"/>
</svg>
